<?xml version="1.0" encoding="UTF-8"?>
<svg id="Layer_1" data-name="Layer 1" xmlns="http://www.w3.org/2000/svg" version="1.1" viewBox="0 0 1080 841.89">
  <defs>
    <style>
      .cls-1 {
        fill: #000;
        stroke-width: 0px;
      }
    </style>
  </defs>
  <path class="cls-1" d="M695.38,296.22c.35,1,.71,2,1.21,3.41-1.55.44-2.93.7-4.2,1.23-1.94.79-3.82,1.74-5.7,2.68-.96.48-1.79,1.35-2.79,1.58-14.71,3.44-28.98,3.35-41.96-5.74-4.43-3.1-8.71-6.42-13.04-9.67-2.32-1.74-3.91-1.62-6.2.51-1.29,1.2-2.62,2.35-4.43,3.96,1.83,1.17,3.66,2.33,6.19,3.95-.27-1.89-.43-2.97-.74-5.11,13.64,9.86,27.47,17.44,43.39,20.23.05,3.35-1.6,4.52-3.8,5.22-3.1.98-6.16,2.22-9.34,2.83-7.02,1.36-14.01,1.11-20.8-1.41-3.89-1.45-7.72-3.09-11.64-4.46-5.06-1.77-9.13-4.97-13.11-8.97-1.4.88-2.7,1.69-4.11,2.57.93,4.15,2.78,6.94,6.29,9.23,7.03,4.6,14.7,7.71,22.23,11.26,5.17,2.44,9.78,1.31,14.62-.04,11.51-3.21,22.99-6.56,34.54-9.65,2.95-.79,6.1-1.03,9.17-1.09,9.94-.17,19.88-.24,29.82-.15,6.87.06,13.86-.25,20.58.86,14.05,2.32,28.11,4.65,41.54,9.97,5.93,2.35,12.66,2.66,19.01,3.96,7.61,1.57,15.24,3.06,22.14,6.97,4.09,2.32,8.38,4.29,12.48,6.6.93.52,1.4,1.84,2.08,2.8-1.18.58-2.47,1.8-3.52,1.62-7.48-1.28-15.11-1.94-22.16-5.13-1.75-.79-3.6-1.35-6.59-2.46,5.97,4.72,10.91,8.58,15.78,12.51.51.41.66,1.25.94,1.81-1.15,2.58-2.8,2.03-4.5.97-4.15-2.6-8.25-5.27-12.43-7.82-3.04-1.85-6.17-3.54-10.2-5.83,3.63,9.07,12.08,11.97,17.01,17.98-.03,2.8-1.65,3.16-3.67,2.89-8.19-1.07-16.39-2.03-22.82-8.16-1.22-1.16-3.02-1.71-4.55-2.54-.44-1.82-1.51-2.77-3.77-1.95,1.29.62,2.58,1.23,3.87,1.85,3.07,4.52,7.08,7.99,11.89,10.57,1.82.98,4.26,1.37,4.18,5.2-2.23-1.06-4.3-1.62-5.84-2.84-6.82-5.38-13.6-10.71-17.62-18.9-1.38-2.81-4.89-4.57-7.82-6.49,4.34,10.68,13.2,19.3,14.09,31.64-4.23,1.15-7.16-.85-9.61-2.49-4.45-2.98-9.08-6.22-12.32-10.38-5.92-7.59-13.77-12.82-21.06-18.66-5.34-4.28-11.39-8.26-19.85-8.41,1.2,1.33,1.75,2.07,2.43,2.66,7.04,6.18,14.12,12.31,21.13,18.51,1.21,1.07,2.28,2.35,3.25,3.66,4.24,5.74,3.93,8.17-1.62,13.17-5.06-.46-9.68-2.35-14.01-5.16-4.56-2.96-9.4-5.51-13.8-8.68-6-4.33-11.7-9.08-17.55-13.63-.23-.18-.66-.1-1.5-.19,1.64,5.35,7.81,6.96,9.65,12.26-4.84,1.62-8.94.66-12-2.82-3.89-4.44-7.29-9.31-11.05-14.17-.15.34-.88,1.25-.66,1.66,2.66,5.01,5.47,9.77,9.39,14.14,5.7,6.35,12.89,10.41,19.4,15.51.49.39.66,1.19.98,1.78-4.22,2.5-10.39,1.81-14.67-1.39-1.88-1.41-3.9-2.62-5.78-4.03-1.28-.96-2.78-1.75-3.62-.08-.38.76.51,2.85,1.41,3.46,5.56,3.72,11.37,7.03,17.93,8.75.84.22,1.64.56,2.61.9-.89,2.75-2.91,2.73-4.9,2.85-6.05.39-11.49-1.73-16.66-4.39-12.07-6.21-19.53-16.82-26.02-28.23-1.05-1.84-1.37-4.08-2.27-6.88-2.76.91-5.49,1.6-8.02,2.72-1.95.86-2.15,2.61-1.39,4.63,3.07,8.17,7.39,15.54,12.54,22.64,5.2,7.17,12.64,9.86,20.26,12.71,1.59.6,3.15,1.29,5.29,2.18-3.96,3.82-7.91,4.3-12.1,3.39-1.83-.4-3.42-.91-5.04.62-4.16,3.92-9.55,3.39-14.41,2.83-6.06-.7-11.91-2.71-17.52-5.44-10.22-4.96-18.94-11.89-27.09-19.65-.65-.62-1.17-1.39-1.81-2.03-1.02-1.02-2.08-2.35-3.67-1.06-1.55,1.26-.53,2.51.19,3.82,4.43,8.14,9.28,16.03,16.28,22.2,5.19,4.58,11.09,8.11,18.08,9.5,2.37.47,4.65,1.47,7.18,2.29-6.39,10.35-15.39,12.94-26.11,11.95-11.41-1.06-21.71-5.57-32-10.08-5.25-2.3-10.27-5.15-15.46-7.79.66,2.42,3.25,4.73,11.6,10.01,4.74,3,9.42,6.2,14.48,8.56,4.89,2.28,10.14,3.94,15.38,5.22,5.22,1.28,10.63,1.74,16.14,2.6-3.95,8.57-11.69,9.55-19.05,10.65-4.41.66-8.46,1.7-12.5,4.24,8.56,1.99,15.51,6.32,20.97,12.8,3.49,4.15,4.57,9.42,5.29,14.63.91,6.59-1.27,12.53-4.61,18.07-2.18,3.62-5.86,5.21-10.16,6.8.34,3.77.79,7.67,1.02,11.59.25,4.29.31,8.58.42,12.88.14,5.66-2.65,10.46-5.39,14.93-3.59,5.86-8.27,11.03-15.43,12.86-1.74.45-3.54.65-5.38.65-3.65,1.99-6.37,6.75-11.89,3.52-3.27,5.9-8.17,9.78-13.4,12.61,0,5.39.04,10.42-.02,15.45-.03,2.91,1.39,4.42,3.93,5.81,15.21,8.34,31.43,14.09,47.88,19.34,12.45,3.97,24.8,8.26,37.35,11.88,4.43,1.28,9.33,1.34,14,1.24,1.84-.04,3.93-1.7,5.41-3.14,5.31-5.18,10.27-10.73,15.62-15.87,7.18-6.9,14.49-13.67,21.94-20.26,7.74-6.84,15.53-13.65,23.65-20.02,10.63-8.34,22.45-14.73,35.26-19.03,4.57-1.54,9.5-2,14.96-3.09,1.06,2.81,2.33,5.74,3.28,8.77,3.69,11.78,6.83,23.75,7.58,36.08.61,10.12.45,20.34-.18,30.46-.5,7.92-2.31,15.74-3.41,23.63-1.68,12.05-7.2,21.76-16.76,29.41-10.78,8.63-21.67,17.08-34.48,22.48-7.48,3.15-15.23,5.68-22.89,8.41-16.86,6.02-34.28,5.04-51.7,4.08-9.08-.5-18.15-.45-27.13,1.16-2.28.41-4.63,1.12-6.63,2.25-16.39,9.31-33.86,15.65-52.39,18.81-19.09,3.26-38.19,6.69-57.42,8.78-12.34,1.34-24.96.92-37.41.33-14.66-.69-29.26-2.34-43.71-5.21-27.11-5.38-53.64-12.67-78.99-23.85-11.1-4.9-22.36-9.57-32.95-15.44-11.27-6.25-21.63-14.1-30.18-23.88-5.77-6.6-9.49-14.56-12.65-22.71-7.48-19.27-12.08-39.16-12-59.91.06-14.31.61-28.61.99-42.92.04-1.44.41-2.86.59-4.3.4-3.33,2.23-5.2,5.22-6.91,11.42-6.55,23.91-7.91,36.65-8.94,23.94-1.92,46.85,2.78,69.43,10.02,2.59.83,5.21,1.73,7.89,2.08,7.65,1.03,14.79,3.57,21.86,6.51,3.84,1.6,7.84,2.8,11.74,4.25,8.5,3.15,17.22,5.84,25.43,9.63,10.35,4.78,21.52,7.29,31.78,12.22,3.71,1.79,7.43,3.57,11.65,5.59,0-3.21-.07-5.71.02-8.2.08-2.29.12-4.61.56-6.85.73-3.74-1.31-6.45-5.15-5.92-3.74.52-6.99.12-10.22-2.07-1.7-1.15-4.2-1.04-6.16-1.89-7.26-3.14-10.6-9.17-11.22-16.69-.39-4.68-.17-9.44.09-14.15.14-2.52-.3-4.3-2.24-6.19-8.44-8.27-11.66-19.14-6.06-31.28,1.57-3.4,3.04-5.88,7.37-6.1-1.41-.52-2.8-1.11-4.23-1.54-3.44-1.03-6.97-1.8-10.33-3.04-2.9-1.07-5.68-2.49-5.74-6.4-.01-.81-1.09-1.74-1.87-2.38-3.61-2.96-8.01-3.92-12.45-4.82-4.14-.85-8.27-1.77-12.36-2.83-.63-.17-1.01-1.31-1.8-2.41,3.16-2.23,6.01-4.41,9.01-6.34,7.46-4.82,14.97-9.61,20.17-17.03,2.59-3.69,4.64-7.75,7.04-11.56,1.4-2.22,3.03-4.31,4.64-6.57,3.34,1.91,2.82,4.2,2.09,6.47-3.13,9.64-7.77,18.27-16.28,24.31-.25.18-.3.63-.6,1.31,3.98.34,5.94-2.93,8.74-4.41,2.85-1.5,5.65-3.12,9-4.97v5.63c6.58-3.39,9.41-10.81,16.48-12.72,1.75,2.24.46,4.15-.44,5.67-3.72,6.29-8.48,11.66-14.9,15.36-4.04,2.33-7.69,5.48-12.67,5.9-.89.07-1.7,1.01-3.13,1.92,6.03,1.85,11.04.24,16.03-1.23,7.28-2.14,13.1-6.75,18.96-11.34,2.23-1.75,4.97-2.84,7.42-4.3,1.86-1.11,3.65-2.36,5.48-3.52,1.29-.82,2.61-1.61,3.92-2.41.31.27.63.54.94.81-.44.96-.62,2.4-1.37,2.8-5.09,2.8-8.07,7.75-12.16,11.55-2.73,2.54-5.77,4.75-9.16,7.51h5.73c1.7,4.75-3.08,7.02-3.84,10.84,14.39-2.59,26.77-7.97,33.99-21.56.5-.95,1.25-1.77,1.84-2.68,3.72-5.69,4.82-5.97,11.4-2.89.31.14.7.1,1.05.15-.44,12.68-8.25,19.82-18.79,24.53,0,1.84.03,3.28,0,4.72-.26,11.29-3.48,21.02-12.36,28.94-5.17,4.62-10.8,8.37-16.41,12.26-2.1,1.45-3.51,3.04-3.62,5.66-.24,5.9-.76,11.79-.73,17.68.01,3.38,1.99,6.21,4.03,8.87-.24-3.45-1.27-6.8-1.2-10.12.11-5.03,3.66-8.83,5.87-13.09.2-.39.91-.56,1.41-.75,1.96-.75,3.94-1.46,5.89-2.18-.61,13.25.91,21.1,4.95,25.85,1.26-3.34,2.56-6.77,4.26-11.29,2.25,5.56,4.18,9.98,5.83,14.5,1.74,4.75,4.52,8.68,8.57,12.17-3.72-8.83-1.45-16.42,3.92-23.7,4.62,20.6,7.56,26.86,14.25,29.5.18-1.89.46-3.62.49-5.36.08-4-.31-8.04.16-11.98.48-4.02,1.75-7.94,2.81-12.47,3.29,3.52,3.75,7.35,4.3,11.03.55,3.64.64,7.35.94,11.03,1.21-3.88,1.51-7.78,1.71-11.69.19-3.77.28-7.55.45-12.25,1.51,1.22,2.46,1.6,2.76,2.27,4.24,9.6,4.17,19.5,1.18,29.58.43.14.86.29,1.29.43,1.59-2.01,3.18-4.02,5.17-6.52.29,1.55.47,2.48.65,3.46,2.69-.99,3.53-3.13,3.71-5.57.29-3.95.46-7.92.58-11.88.05-1.63-.31-3.33,2.14-4,.84,1.26,1.69,2.55,2.55,3.84,1.94-.45,1.23-4.21,4.27-3.3,2.98,8.17,1.05,15.95-3.02,24.44,6.94-5.04,10.31-10.77,11.38-17.93.46-3.04,1.11-6.06,1.75-9.07.09-.43.61-.76,1.22-1.47.65,1.3,1.17,2.34,1.69,3.35,4.46-.63,5.37.13,4.83,4.28-.33,2.53-.93,5.02-1.41,7.52,4.79-9,5.73-18.81,6.55-29.84,4.44,8.43,2.21,15.92,1.76,23.39,1.17-2.48,1.82-5.01,2.4-7.57,1.53-6.78,2.52-13.62.56-20.44-1.54-5.37-3.42-10.64-5.29-15.91-.59-1.67-1.94-3.15-.28-5.15.76.08,1.96-.15,2.43.33,1.49,1.53,3.09,3.14,3.96,5.03,5.34,11.69,9.99,23.56,7.25,37.1,2.28-2.89,4.12-5.75,5.37-8.85,2.99-7.43,2.34-15.26,1.91-23.01-.07-1.23-.93-3.08-1.9-3.49-6.35-2.65-10.42-7.66-14.2-13.01-3.75-5.29-7.46-10.61-11.02-16.03-1.39-2.1-2.33-4.5-3.46-6.77-.69-1.39-1.15-3.07.6-3.71,1.09-.4,2.88-.05,3.84.66,1.57,1.16,2.72,2.88,4.04,4.36.76.85,1.51,1.71,2.94,3.34-.03-5.31,1.85-7.84,6.42-7.88.64,0,1.27-1.07,1.19-.99-.25-3.69-.45-6.55-.67-9.73-.64.05-1.78-.12-2.7.25-7.16,2.88-14.68,3.77-22.28,3.67-2.82-.04-5.79-.74-8.38-1.86-2.11-.91-3.27-3.1-2.91-5.72.05-.39-.53-.87-.82-1.3-2.99-4.37-2.8-5.12,1.91-7.69.62-.34,1.25-.65,2.14-1.11-1.23-2.93-1.31-5.34,2.49-6.25,1.82-.43,2.05-1.98.88-3.36-.97-1.14-2.22-2.04-3.4-3.09-5.6,7.92-7.51,17.21-13.2,24.38-2.8-1.7-1.93-3.61-1.56-5.28.51-2.3,1.16-4.58,1.96-6.79,3.14-8.7,6.76-17.15,12.5-24.54,3.2-4.11,6.51-8.2,9.13-12.67,3.33-5.69,7.11-10.88,12.33-14.93,3.85-3,7.78-5.89,11.65-8.87,7.89-6.07,15.76-12.02,25.5-15.13,12.24-3.9,24.27-8.44,36.46-12.51,4.8-1.6,9.72-2.92,14.68-3.91,7.78-1.56,15.61-3.01,23.48-4.02,10.42-1.34,20.89-2.22,31.34-3.3,2.38-.25,4.75-.55,7.12-.83,3.44.78,6.96,1.59,10.97-.51-6.07-.68-11.74-1.84-17.42-1.84-11.91,0-23.82.71-35.74.92-6.26.11-12.17,1.59-18.04,3.5-1.55.5-3.11,1.06-4.71,1.33-15.82,2.69-31.08,6.94-44.92,15.43-2.3,1.41-4.97,2.19-7.42,3.37-2.09,1.01-4.27,1.95-6.13,3.31-9.02,6.58-17.73,13.61-26.97,19.87-10.77,7.31-20.4,15.64-27.66,26.52-8.63,12.93-16.53,26.22-20.2,42.41-1.15-1.69-2-2.93-2.84-4.16-2.93,3.81-3.1,3.86-7.2,2.23-.67-3.66-1.31-7.12-1.95-10.58-1.1-6.77-6.32-10.68-10.69-15.13-.68-.69-2.01-.72-3.03-1.08-5.94-2.09-11.91-4.12-17.79-6.36-.92-.35-1.47-1.66-2.4-2.79,4.62-2.72,8.57.21,12.63.31-1.09-3.69-6.29-8.7-9.8-9.71-4.94-1.42-9.56.03-14.42,1.01,2.15-.89,4.3-1.77,7.37-3.04-11.26-2.98-21.84-1.32-32.19-.57-.78-2.8,1.03-3,2.26-3.44,6.01-2.15,12.21-3.32,18.6-3.48.82-.02,1.65-.12,3.39-.25-4.24-3.25-8.32-3.9-12.39-3.4-4.83.6-9.56,1.92-14.34,2.9-6.11,1.26-10.24,5.14-13.45,10.19-1.56,2.44-2.96,4.98-4.43,7.48.34-6.04,4.65-10.05,7.63-14.64-2.72-4.45-2.58-5.22,1.58-7.72,1.07-.64,2.3-1.01,3.47-1.45,3.61-1.36,7.23-2.7,10.85-4.05-3.62-1.02-6.77-3.46-10.77-1.69-2.08.92-4.62.8-6.94,1.22-10.35,1.89-19.85,5.4-27.16,13.54-3.2,3.55-6.93,6.62-10.29,9.77,8.07-11.62,17.39-21.98,32.13-25.89-12.88.34-23.8,6.76-35.41,10.83-.15-.33-.3-.66-.45-1,5.27-3.53,10.55-7.06,16.92-11.32-2.23.15-3.21-.03-3.94.31-6.69,3.16-13.35,6.41-20.01,9.65-1.45.71-2.89,2.13-4.3,2.09-3.22-.11-5.47,1.59-7.95,3.06-2.64,1.57-5.3,3.08-7.96,4.62,6.04-4.9,11.74-10.31,18.21-14.56,6.54-4.29,13.83-7.43,21.24-11.31-.99-.25-1.6-.53-2.21-.53-5.19-.01-10.41.35-15.57-.06-3.6-.29-6.2.98-8.9,2.98-8.42,6.23-16.94,12.32-25.44,18.45-.73.53-1.6.86-2.36,1.36-1.35.9-2.65,1.35-3.76-.28-1.18-1.74.21-2.69,1.29-3.6,1.38-1.18,2.87-2.21,4.31-3.32,5.36-4.11,10.72-8.22,16.58-12.71-3.73-.59-6.37.45-8.93,2.27-6.78,4.82-13.61,9.57-20.47,14.28-.85.58-2.17,1.29-2.94,1.01-3.29-1.21-5.66.67-8.08,2.14-3.56,2.16-7.03,4.49-10.41,6.92-3.79,2.73-7.45,5.64-11.17,8.48,1.03-2.3,2.42-4.23,4.19-5.68,2.66-2.17,5.53-4.09,8.41-5.97,3.94-2.57,7.83-5.24,11.98-7.43,6.07-3.2,12.32-6.05,18.53-8.96,1.65-.78,2.69-1.62,2.06-3.61-26.07,4.36-75.62,46.03-76.21,64,.89-.4,1.74-.78,3.29-1.48-1.36,2.83-2.39,4.97-3.42,7.12,8.02-7.95,11.48-19.08,20.7-27.44-.71,5.06-1.26,9.04-1.82,13.03.37.08.74.16,1.11.23.84-1.96,1.45-4.06,2.57-5.84,1.1-1.76.78-4.87,4.16-5.02,1.97,10.56-5.37,16.79-10.83,23.92.96-.12,1.63-.4,2.08-.89,6.56-7,13.07-14.04,16.88-23.07,1.06-2.5,2.3-4.95,3.69-7.29,1.05-1.77,2.45-3.33,3.61-4.87,2.7,1.31,2.22,3.15,1.77,4.6-1.13,3.62-2.52,7.16-3.89,10.7-.85,2.19-1.84,4.32-2.77,6.48.39.24.77.48,1.16.73,4.72-5.19,9.44-10.37,14.68-16.13.33,2.89.54,4.7.78,6.88,4.68-3.26,3.87-9.4,8.11-12.47,2.78,2.42,2.42,5.12,1.4,7.69-2.73,6.91-5.59,13.72-11.37,18.88-1.86,1.65-4.29,3.27-4.63,7.07,6.37-2.78,11.79-5.63,15.27-11.31,2.93-4.79,5.78-9.66,9.07-14.2,4.98-6.87,9.32-14.33,16.48-19.35-1.22,9.21-6.89,16.22-11.71,23.64-1.18,1.81-2.28,3.68-3.54,5.44-1.27,1.78-2.68,3.45-4.03,5.17,1.51.37,2.42.22,3.1-.27,6.15-4.47,12.27-9,18.39-13.53,3.22-2.39,5.99-5.18,7.98-8.72,2.39-4.26,4.93-8.44,7.35-12.68,1.85-3.24,3.58-6.57,8.22-8.54-.91,9.01-5.74,15.68-8.61,23.53,3.44-2,6.33-3.68,9.21-5.37.22.23.43.45.65.68-.5,1.22-1,2.44-1.38,3.35,2.44.72,4.87,1.43,7.54,2.22,3.38-2.37,7.25-4.76,10.72-7.63,3.48-2.89,7.07-4.02,11.61-2.38,1.53,6.03-1.78,10.81-4.73,15.45-2.86,4.51-6.46,8.54-10.44,13.7,10.13-5.58,16.17-13.72,22.94-21.07.05,2.93,2.1,4.14,4.25,5.09,4.87-4.88,8.24-11.35,15.84-13.78.96,4.86-1.63,8.09-3.91,10.65-6.82,7.69-13.67,15.48-22.49,21.04-9.04,5.7-18.68,10.15-28.94,13.2-1.19.35-2.51.37-3.77.39-4.53.1-4.5.07-5.61-4.39-.26-1.03-.77-1.99-1.38-3.53,2.01-1.45,3.87-3.2,6.05-4.29,8.54-4.26,14.49-11.34,20.33-18.5,1.34-1.64,2.04-3.8,3.66-6.93-3.44,2.53-6.03,4.21-8.37,6.19-6.28,5.33-12.1,11.27-18.78,16.01-4.32,3.06-9.77,4.66-14.86,6.47-3.38,1.2-7.01,1.83-10.58,2.37-4.06.61-8.15.73-9.71-4.75-5.28,2.21-10.27,4.34-15.29,6.4-3.99,1.64-7.84,3.63-12.51,1.96-1.36-.49-3.64.27-4.96,1.22-4.35,3.11-9.15,5-14.23,6.47-3.36.97-6.34,1-8.29-.77-4.33,1.04-7.93,2.31-11.62,2.66-3.36.32-5.23,2.6-7.11,4.53-5.87,6.06-9.91,13.31-12.19,21.48-.44,1.57-.73,3.28-1.59,4.59-.66,1.01-2.11,2.08-3.22,2.09-1.8.01-2.11-1.68-1.86-3.25.37-2.32.74-4.65,1.22-6.95,1.8-8.51,3.64-17.01,5.48-25.5,1.45-6.71,5.41-12.22,8.65-18.08,7.42-13.45,16.88-25.13,28.65-35.14,9.15-7.78,18.63-14.75,29.26-20.47,10.53-5.67,21.52-10.26,32.83-13.39,14.01-3.88,28.3-7.65,43.22-6.4,3.74.31,7.54-.03,11.32-.1,7.28-.14,14.23,1.52,21.2,3.42,4.62,1.26,9.67,1.22,14.08,2.92,4.25,1.64,8.93,2.4,12.76,4.31,9.78,4.85,20.05,9.02,28.73,15.9,2.11,1.67,4.07,3.53,6.05,5.35,5.44,4.99,11.07,9.8,16.2,15.09,2.77,2.86,4.67,6.56,6.96,9.88,1.71,2.48,3.43,4.96,5.51,7.98,2.34-3.83,4.37-6.98,6.23-10.24,5.72-9.99,13.45-18.31,21.58-26.32,3.87-3.81,7.52-7.85,11.14-11.91.93-1.04,1.63-2.47,1.96-3.83,2.02-8.41,3.9-16.85,5.93-25.77-.85.43-1.89.6-2.17,1.15-2.87,5.6-5.76,11.2-8.34,16.94-1.77,3.93-2.87,8.16-4.6,12.11-1.38,3.15-3.11,6.16-7.49,5.72-.89-.09-1.87.8-3.2,1.41-.73-4.82-.34-9.48.85-13.93,5.16-19.3,14.91-36.39,26.25-52.61,6.37-9.11,13.97-17.03,24.5-21.6,2.44-1.06,4.49-3,6.79-4.43,5.21-3.24,10.22-6.95,15.75-9.48,7.39-3.39,15.16-5.97,22.86-8.66,3.58-1.25,7.35-1.99,11.07-2.84,1.67-.38,3.4-.46,5.1-.67.15.44.31.88.46,1.32-1.11.55-2.17,1.26-3.35,1.61-7.78,2.34-15.97,3.76-23.28,7.1-10.69,4.88-21.07,10.65-28.87,19.97-1.59,1.9-3.74,3.33-5.28,5.26-4.23,5.28-8.28,10.7-12.69,16.46,1.22.09,1.73.26,1.85.11,3.11-3.73,6.2-7.47,9.24-11.25,4.19-5.22,8.6-10.16,13.83-14.43,5.5-4.49,12.29-6.11,18.43-9.16,3.83-1.91,7.93-3.28,11.9-4.91,5.84-2.39,11.71-4.73,17.51-7.22,1.75-.75,4.33-1.63,4.75-3,.76-2.51,2.62-2.6,4.12-2.72,9.19-.69,18.41-1.13,27.61-1.59,1.07-.05,2.22.04,3.23.37,3.74,1.22,7.44,2.58,11.17,3.86,4.41,1.52,8.32,4.49,13.27,4.52.81,0,1.75.62,2.39,1.22,5.03,4.66,10.11,9.26,14.9,14.16,1.33,1.36,1.73,3.62,2.91,6.25-5.09-3.4-9.16-6.19-13.3-8.86-4.26-2.75-8.51-5.51-12.91-8.02-4.3-2.46-8.78-4.6-13.53-6.28,7.45,6.14,16.01,10.57,24.24,15.98-2.08,2.81-4.39,2.68-6.6,1.8-2.52-1-5.02-2.17-7.3-3.64-4.83-3.11-9.47-6.54-14.28-9.68-1.69-1.11-3.15-2.88-5.81-2.03-.83.27-2.61-1-3.32-2.01-2.48-3.54-2.37-3.61-7.32-1.51,9.88,10.32,22.35,15.19,35.5,19.85-1.25,2.36-3.37,3.32-5.98,2.64-3.83-1-7.7-2.05-11.31-3.64-9.36-4.12-18.06-9.29-24.71-17.34-.15-.19-.65-.09-.99-.13.72,9.02,14.41,21.21,29.66,25.83-1.91,1.39-3.25,3.12-4.83,3.37-4.41.7-8.92.78-13.41,1.11-4.67-.66-8.85-2.46-13-4.7-4.92-2.66-9.43-5.81-13.76-9.28-1.69-1.36-3.45-2.61-5.82-1.56,1.32,3.83,7.72,4.53,5.91,10.86,6.45,1.7,12.84,3.59,19.33,4.97,2.35.5,4.95-.22,7.44-.38ZM282.35,546.34c-.19,1.2-.56,2.39-.55,3.59.06,11.05-.2,22.13.41,33.15.5,9.03,1.76,18.05,3.29,26.97,1,5.86,3.22,11.51,4.64,17.31,1.95,7.98,4.59,15.69,9.44,22.38,8.74,12.07,17.44,24.48,30.64,32.01,10.03,5.72,20.78,10.36,31.58,14.54,29.32,11.33,59.41,19.87,90.83,22.98,10.27,1.02,20.55,2.32,30.85,2.57,10.5.25,21.02-.63,31.53-1.01,16.48-.58,32.89-1.87,49.05-5.35,8.49-1.83,16.9-4.05,25.41-5.76,15.03-3.02,28.58-9.58,40.85-18.33,10.89-7.76,20.83-16.86,31.16-25.4,5.86-4.85,11.82-9.61,17.44-14.72,4.42-4.02,8.19-8.76,12.61-12.78,14-12.74,23.83-28.63,33.79-44.4,4.05-6.41,7.28-13.35,11.27-19.8,8.28-13.37,19.8-23.48,33.01-31.79.88-.55,1.68-1.24,2.51-1.87-1.24-.38-2.32-.37-3.2.06-7.63,3.79-15.2,7.71-22.84,11.48-7.26,3.58-13.16,8.95-19.05,14.32-6.83,6.23-13.55,12.58-20.29,18.9-3.84,3.59-7.85,7.02-11.4,10.88-9.59,10.44-19.72,20.27-31.56,28.14-3.75,2.49-7.69,4.93-11.89,6.46-25.7,9.36-52.32,14.75-79.45,17.87-3.2.37-6.31,1.39-9.49,2-1.17.22-2.41.28-3.59.17-2.47-.23-4.95-1.01-7.39-.88-18.68,1.02-37.3.57-55.97-.78-26.23-1.9-51.5-8.21-76.6-15.36-10.09-2.88-19.77-7.16-29.75-10.47-18.61-6.16-35.43-15.96-51.74-26.42-10.92-7-20.82-15.7-30.64-24.26-8.99-7.84-17.41-16.36-24.9-26.39ZM655.71,682.17c1.9,3.38,4.2,5.71,8.1,5.92,3.23.17,6.48.22,9.67.69,18.63,2.74,36.56-.56,54.01-6.72,7.99-2.82,15.76-6.5,23.2-10.57,6.79-3.71,13.38-8.01,19.35-12.92,3.34-2.74,6.06-6.92,7.63-11,6.78-17.55,9.87-35.92,11.05-54.66.82-13.15-1.33-26.06-3.09-38.98-.7-5.11-1.52-10.31-4.21-14.94-.11,1.11.03,2.16.23,3.21,1.93,10.02,1.01,19.8-2.51,29.36-.75,2.04-1.55,4.08-2.16,6.16-3.71,12.83-9.76,24.18-20.63,32.41-6.78,5.13-13.29,10.9-21.75,13.07-6.98,1.79-14.11,3.1-21.25,4.19-5.39.82-7.86,3.6-6.6,8.46.07.28-.2.64-.4,1.23-1.14-.37-2.28-.74-3.64-1.18-1.03,1.15-2.1,2.33-3.29,3.65.68,1.41,1.36,2.65,1.85,3.96.14.37-.28.94-.55,1.73-1.57-.67-2.97-1.27-4.57-1.95-1.28,1.53-2.52,3.02-3.57,4.27.69,3.31,4.32,4.97,3.21,9.2-2.55-2.48-4.66-4.54-6.8-6.62-.73.78-1.22,1.31-1.72,1.83-3.09,3.2-3.04,3.17-.65,6.69.73,1.08,1.17,2.36,1.74,3.56-.35.27-.7.55-1.05.82-1.87-1.74-3.75-3.48-5.04-4.67-1.95,1.17-3.65,2.18-4.75,2.84.81,5.51,6.19,7.88,6.03,14.33-3.59-4.17-6.37-7.38-9.47-10.98-1.85,1.79-3.44,3.33-4.82,4.67,1.86,4.86,5.32,8.2,6.99,13.41-5.76-1.71-5.71-7.46-10.04-9.81-1.15,1.26-2.39,2.63-3.55,3.91,2.15,3.48,4.06,6.57,5.98,9.67-.39.31-.79.62-1.18.93-2.48-2.61-4.95-5.23-7.57-8-1.5,1.03-2.8,1.92-4.14,2.84ZM354.72,522.38c-.05.23-.1.46-.15.69,7.29,3.97,14.76,7.66,21.83,12.01,6.3,3.87,12.54,8.02,18.1,12.85,9.98,8.65,19.78,17.53,28.47,27.56,7.23,8.35,15.79,15.55,21.65,25.09,5.27,8.58,12.57,15.45,19.19,22.91,4.54,5.11,9.88,9.11,15.65,12.5,4.13,2.42,8.73,4.05,13.2,6.07,2.09-7.94,4.45-59.15,3.37-70-8.38-6.28-18.2-9.63-27.85-13.32-10.84-4.14-21.6-8.49-32.46-12.56-10.67-4-21.32-8.13-32.19-11.53-11.07-3.46-22.37-6.19-33.61-9.06-5.01-1.28-10.12-2.14-15.19-3.19ZM583.66,604.31c-.94.93-1.13,1.19-1.19,1.17-5.45-2.54-10.89-5.1-16.47-7.72-1.16,2.92-.2,4.93,2.25,6.44,3.25,1.99,6.51,3.96,9.71,6.02.76.49,1.31,1.32,2.56,2.63-6.19.02-8.99-5.37-13.91-5.89-1.3,3.54,0,5.76,3.26,7.49,2.31,1.23,5.3,1.96,5.66,5.82-2.82-1.54-5.65-3.07-8.68-4.72-2.39,7.74,5.92,6.97,8.35,12.16-3.42-1.45-5.85-2.48-8.32-3.54-1.29,3.97-.08,6.62,3.23,8.67-1.5.41-2.35.65-3.18.87-1.72,3.24,1.42,4.35,3.12,6.38-1.28.42-2.18.71-3.3,1.08.41,1.47.78,2.79,1.15,4.12,3.78-.3,7.22-.39,10.61-.87,20.84-2.93,41.53-6.72,61.57-13.26,6.22-2.03,11.94-5.6,18.82-8.92-5.81-1.97-10.41-3.57-15.04-5.1-13.95-4.61-27.91-9.18-41.87-13.78-4.82-1.59-9.59-4.37-14.45-4.51-6.01-.17-10.14-3.27-14.77-5.92-2.31-1.33-4.61-2.67-7.49-4.35v5.11c6.18,3.57,12.07,6.99,18.37,10.63ZM470.96,640.45c.15-.43.3-.85.45-1.28-1.48-.99-2.89-2.08-4.44-2.95-20.88-11.72-41.76-23.44-63.56-33.43-17.46-8-35.29-14.37-54.85-13.84-4.03.11-7.4-1.03-10.69-3.19-3.25-2.13-6.72-3.93-10.09-5.88,42.69,32.21,90.87,51.33,143.17,60.57ZM534.15,574.17c-3.1-2.38-2.16-7.59-6.75-8-3.5,5.17.63,9.24,1.55,14.7-3.94-3.55-2.73-8.9-7.3-11.32-2.55,5.47,1.42,10.1.8,15.37-1.29-2.85-2.58-5.71-4.15-9.19-2.58,5.35.86,9.7.49,14.85-1.41-2.46-2.49-4.34-4.13-7.21-1.81,6.69-1.33,11.98.52,17.15.39,1.09,1.44,2.09,2.43,2.8,6.1,4.42,12.51,7.92,20.45,7.73,5.21-.13,10.43.34,15.65.48,1,.03,2.01-.27,2.69-.37,0-9.66-.41-18.92.12-28.13.47-8.07-3.88-14.14-7.06-20.74-1.11-2.29-4.84-2.93-7.29-1.74-2.52,1.23-3.32,3.36-2.34,6.25.58,1.7,1.12,3.42,1.68,5.13-.24.07-.48.15-.72.22-1.31-2.51-2.62-5.01-3.88-7.42-5.6,1.05-5.66,1.27-2.76,9.43ZM556.31,615.2c-.62-.29-.78-.42-.94-.43-10.46-.58-20.93-1.61-31.38-1.52-5.57.05-10.22,3.34-12.88,8.68-3.64,7.3-4.59,15.05-4.16,23.43,16.89,1.51,33.63,2.04,50.48.81.35-.88.86-1.55.82-2.19-.6-9.54-1.27-19.07-1.94-28.77ZM622.57,337.79c-3.37-1.05-6.5-1.26-9.1,1.51-.66.7-1.86,1.37-2.76,1.31-8.04-.55-16.83,2.06-23.45-6.45-3.06,8.7-6.73,16.14-7.94,24.42-.09.64.69,1.4,1.04,2.07,13.65-8.82,27.33-16.78,42.22-22.87ZM565.57,410.14c9.47,8.52,19.54,14.95,31.14,18.91,4.28,1.46,9.13,1.53,13.08-.36-9.38-1.67-16.45-6.95-23.51-12.21-4.33-3.22-8.52-6.65-12.64-10.15-1.9-1.62-3.37-1.89-4.99.21-.95,1.23-2.02,2.36-3.09,3.59ZM578.2,394.14c12.88,7.35,37.27,16.07,41.76,15.37-5.89-3.37-12.59-6.27-18.13-10.65-5.57-4.4-9.97-10.28-15.1-15.73-2.89,3.73-5.58,7.2-8.54,11.01ZM761.74,551.55c.05,5.69-5.66,6.45-7.36,9.1,2.38,4.45,4.3,8.02,6.38,11.92,1.57-4.91,3.44-9.35,8.66-12.2-5.47-.53-5.76-4.89-7.68-8.81ZM307.89,550.37c-.87-6.12,4.91-8.45,7.14-13.14-6.43-1.37-5.55-7.26-7.44-11.95-2.56,4.53.22,10.85-7.24,12.41,5.95,2.92,5.21,8.25,7.54,12.68ZM352.66,544.31c-2.01,4.53-2.41,9.84-7.72,11.24,2.18,3.93,4.16,7.49,6.29,11.33.84-5.24,3.07-9.49,8.1-11.41-2.07-1.44-4.53-2.3-5.45-4-1.1-2.01-.88-4.74-1.23-7.16ZM327.33,525.53c1.79,2.72,3.78,5.72,5.91,8.96,1.85-3.75,3.68-7.44,5.59-11.3-1.9-1.76-4.2-3.89-6.71-6.22-1.65,2.94-3.28,5.85-4.79,8.56ZM391.23,568.8c-1.46,4.2-1.89,8.63-7.28,9.75,5.93,1.33,5.26,6.69,7.34,11.65.51-5.89,2.56-9.46,7.5-12.34-6.34-.57-3.91-6.37-7.55-9.06ZM665.15,300.06c-2.46-3.25-4.14-6.23-6.53-8.42-2.36-2.16-5.44-3.54-8.21-5.26-.17.24-.34.48-.51.71,1.28,1.6,2.56,3.2,3.41,4.27-1.63,1.65-2.96,3.01-4.3,4.37,4.89,4.31,10.38,3.05,16.14,4.33ZM761.49,595.92c-.67-1.2-1.74-2.85-2.56-4.62-.85-1.82-1.45-3.75-2.45-6.39-1.83,4.47-.46,9.7-6.07,10.71,1.22,1.29,2.49,2.29,3.31,3.58.9,1.42,1.39,3.1,2.35,5.33,2.3-3.86,3-7.92,5.42-8.61ZM422.71,581.8c-.47,0-.95,0-1.42,0-.78,2.32-1.56,4.65-2.29,6.82-1.76.32-3.2.59-4.64.85,5.05,1.8,4.07,6.81,5.85,10.78,1.95-4.21,3.09-8.16,7.63-9.02-1.71-1.47-3.55-2.41-4.32-3.89-.81-1.57-.59-3.67-.81-5.53ZM732.93,605.7c-.92,5.14-2.04,9.66-7.41,11.56,3.16,1.05,5.74,1.92,8.38,2.8.35-3.85,4.89-2.66,6.56-4.34-2.49-3.32-4.72-6.27-7.54-10.02ZM377,557.16c.83-1.85,1.29-3.91,2.52-5.29,1.25-1.42,3.25-2.18,5.2-3.4-2.37-1.34-4.62-2.47-4.67-5.55-.01-.7-1.52-1.38-1.95-1.73-2.04,2.63-3.68,4.76-5.1,6.58,1.24,2.92,2.54,5.96,4,9.4ZM632.82,313.91c9.96,3.13,12.7,3.12,14.85-.15-2.74-1.68-5.49-3.36-8.31-5.09-2.35.39-4.81.8-7.39,1.22.31,1.45.59,2.79.85,4.02ZM743.36,583.94c-3.96-.31-2.14-5.09-4.86-7.07-1.35,1.67-2.64,3.09-3.69,4.68-.45.67-.74,1.8-.49,2.51,1.02,2.94,2.28,5.8,3.47,8.73,1.8-2.85,3.54-5.62,5.58-8.85ZM327.85,576.39c2.98-1.29,5.07-2.2,7.9-3.43-5.54-1.9-3.65-7.97-7.32-12.07-.6,4.38.01,8.48-4.4,10.29,1.55,2.11,2.81,3.82,3.82,5.21ZM752.15,344.5c4.64,5.67,9.72,9.87,14.19,11.46-2.39-3.88-4.3-7.3-6.51-10.51-2.92-4.23-3.03-4.16-7.67-.95ZM362.79,573.96c-1.78,2.91-3.49,5.69-5.57,9.09,2.7,3.8,6.81,1.12,10.19,1.43-1.65-3.75-3.19-7.25-4.62-10.52ZM645.7,383.77c-3.56-3.13-7.11-6.25-10.85-9.54-1.19,1.28-2.08,2.24-3.14,3.36,4.52,3.09,8.25,6.74,13.99,6.17ZM678.15,282.12c4.32,3.28,8.37,6.26,14.06,7.61-3.68-5.17-6.85-9.8-14.06-7.61ZM649.59,378.44c2.91.98,4.75,2.97,8.42,2.59-3.33-3.62-4-8.51-9.03-9.93,3.22,1.79,1.83,4.23.61,7.34ZM589.32,331.97c4.14,2.55,7.97,3.84,12.43,2.89-3.35-1.86-6.88-3.14-10.46-4.27-.36-.11-1,.68-1.97,1.38ZM629.15,367.65c.35-.2.69-.4,1.04-.6-1.29-3.35-2.58-6.69-3.94-10.22-2.26.18-3.99.82-2.6,3.24,1.55,2.69,3.65,5.07,5.5,7.58ZM782.2,344.95l-.71.86c1.96,1.78,3.8,3.7,5.9,5.29,1.5,1.14,3.33,1.83,5.55,3-2.08-5.66-6.47-7.34-10.74-9.16ZM612.54,395.78c1.11,4.24,4.11,5.22,8.39,6.09-2.6-3.22-4.46-5.79-8.39-6.09ZM594.07,376.84c-1.28,1.96-2.38,2.93-2.21,3.52.65,2.22,1.7,4.32,5.35,5.17-1.05-2.9-1.86-5.14-3.14-8.69ZM701.92,341.08q-1.94-4.73-5.68-3.32c.94.47,1.89.89,2.78,1.42,1,.59,1.94,1.27,2.9,1.91ZM775.59,575.64c-.23-.12-.46-.24-.69-.36-1.38,1.94-2.77,3.87-4.34,6.07.71.58,1.43,1.16,2.26,1.84.46-1.6.72-2.8,1.14-3.93.46-1.23,1.07-2.41,1.62-3.62ZM491.57,460.01c-2.83,3.62.23,6.1-.55,9.78,3.7-3.8,1.12-6.3.55-9.78ZM755,328.28l-.4,1.09c2.76.6,5.52,1.2,8.27,1.81.07-.33.15-.66.22-.99-2.7-.63-5.4-1.27-8.09-1.9ZM731.44,359.39c-1.42-2.43-2.62-4.11-5.82-4.06,1.14,2.79,2.57,4.14,5.82,4.06ZM612.43,363.64c1.65,1.3,2.79,2.2,3.93,3.09l.67-.47c-.42-1.22-.83-2.45-1.34-3.93-1.05.42-1.81.73-3.25,1.31ZM487.23,534.34c.38-.17.77-.33,1.15-.5-.74-1.96-1.47-3.93-2.21-5.89-.32.12-.64.23-.96.35.67,2.01,1.35,4.03,2.02,6.04ZM587.22,324.08c.33.15.66.3,1,.45.53-1.08,1.05-2.15,1.58-3.23-.36-.16-.73-.33-1.09-.49-.5,1.09-.99,2.18-1.49,3.26ZM651.28,685.75c.07.43.14.86.21,1.29.85-.13,1.7-.26,2.55-.39-.03-.34-.07-.68-.1-1.02-.89.04-1.77.09-2.66.13Z"/>
  <path class="cls-1" d="M214.66,285.14c-13.42-1.7-24.6,2.97-36.04,6.08-11.77,3.21-21.97,9.27-31.15,17.39,1.3-4.64,3.62-8.58,6.63-12.07,5.33-6.17,10.35-12.73,16.35-18.19,11.68-10.61,23.92-20.63,39.43-25.42,5.48-1.69,5.39-1.67,8.79,2.85,6.45,8.56,13.97,16.14,21.09,23.11,7.81-3.3,15.07-6.37,21.82-9.23-5.51.02-11.8,0-17.55,3.03-2.95,1.55-4.97,1.52-7.65-1.01-15.06-14.18-26.1-30.96-33.4-50.25-1.47-3.89-2.86-7.86-3.73-11.91-1.08-5-.31-6.35,4.26-8.7,7.24-3.73,14.59-7.24,21.86-10.9,2.1-1.06,4.17-2.21,6.15-3.48,7.64-4.9,15.32-9.65,23.82-13.04,13.12-5.24,25.91-11.35,39.18-16.17,12.93-4.69,26.18-8.57,39.47-12.13,9.41-2.52,19.13-3.9,29.51-5.95-1.38-3.3-2.53-6.62-4.1-9.73-4.46-8.83-7.32-18.14-8.94-27.86-.52-3.13.2-4.18,3.99-5.25,9.41-2.65,18.83-5.29,28.31-7.68,27.33-6.9,55.12-11.19,83.14-13.85,22.23-2.11,44.57-2.24,66.91-1.92,30.91.44,61.57,3.3,92.04,8.62,23.67,4.13,46.81,10,69.06,19.18,8.64,3.57,8.79,3.53,6.42,12.64-1.64,6.3-3.71,12.49-5.52,18.74-.44,1.53-.64,3.14-1.05,5.2,6.4,1.07,12.52,1.69,18.44,3.16,12.66,3.13,25.31,6.36,37.78,10.17,9.34,2.86,18.72,6.01,27.49,10.24,13.87,6.68,28.99,10.68,41.86,19.42,8.29,5.63,17.41,9.61,26.25,14.18,4.45,2.3,8.42,5.55,12.6,8.38,1.64,1.11,1.72,2.69,1.14,4.35-1.55,4.45-2.87,9-4.81,13.28-7.1,15.66-17.14,29.42-28.08,42.55-2.2,2.64-4.88,4.85-7.28,7.33-1.48,1.54-2.96,1.67-4.88.76-9.12-4.32-18.49-4.88-27.99-1.41-3.81,1.39-8.33,1.18-11.98,5.38,2.36-.55,3.93-.77,5.39-1.28,11.05-3.9,21.99-4.35,32.76.91,3.16,1.54,5.64,1.17,8.14-1.59,6.67-7.37,13.61-14.49,20.36-21.79,1.48-1.6,3.02-1.88,4.87-1.15,4.38,1.72,8.94,3.12,13.07,5.31,12.68,6.72,24.99,14.14,33.92,25.73,4.59,5.97,8.34,12.58,12.48,18.9-.27.34-.54.67-.81,1.01-5.27-2.79-10.4-5.92-15.85-8.28-5.47-2.37-11.22-4.17-16.95-5.85-5.88-1.73-11.89-3.02-18.52-4.67,4.39,8.4,8.75,15.93,12.33,23.82,3.68,8.11,4.98,16.91,4.93,26.28-.99-1.11-2.13-2.12-2.94-3.36-7.3-11.12-16.81-19.67-28.38-26.36-9.97-5.76-20.32-10.48-31.25-13.75-8.81-2.64-17.91-4.36-26.96-6.11-5.1-.99-10.34-1.23-16.18-1.88,1.34-12.38,5.26-23.97,8.57-36.01-11.34-5.7-21.87-12.32-33.97-16.08-13.99-4.35-27.68-9.67-41.49-14.61-11.61-4.15-23.57-6.9-35.62-9.4-3.35-.7-6.56-2.04-9.82-3.15-4.8-1.64-6.9-5.35-6.62-10.09.2-3.37,1.17-6.75,2.26-9.98.36-1.07,2.14-1.67,2.65-2.05-5.72-1.26-12.06-2.58-18.35-4.06-19.48-4.58-39.26-7.46-59.16-8.93-20.77-1.53-41.64-2.71-62.45-2.6-24.85.13-49.65,2.15-74.12,6.96-6.04,1.19-12.06,2.56-18.14,3.49-7.67,1.16-15.4,1.96-22.92,2.89,2.98.43,6.88-.07,9.12,1.62,2.27,1.71,2.96,5.57,4.24,8.54.78,1.83,1.58,3.69,2,5.62,1.05,4.81-.87,8.79-5.47,10.49-4.9,1.81-9.91,3.58-15.03,4.49-15.97,2.83-31.04,8.45-46.18,13.98-10.71,3.91-21.71,7.04-32.29,11.25-8.22,3.27-15.97,7.71-23.95,11.58-3.07,1.49-6.2,2.84-9.8,4.48,4.32,9.49,5.28,19.78,10.24,28.75,2.01,3.64,1.22,5.32-2.34,5.61-19.88,1.64-38.95,6.56-56.88,15.19-11.26,5.41-22.31,11.46-30.56,21.32-3.13,3.75-6.06,7.68-9.07,11.53-.87,1.12-1.73,2.25-3.55,3.08.56-2.25.91-4.58,1.71-6.75,3.78-10.29,8.99-19.78,15.93-28.33,3.64-4.48,6.97-9.22,11.05-14.65ZM679.5,132.68c-.88.81-2.08,1.45-2.58,2.45-1.94,3.86-3.71,7.81-5.46,11.77-2.62,5.93-5.28,11.84-5.47,18.53-.07,2.32.58,3.42,3.45,3.28.38-2.22.84-4.47,1.15-6.74,1.38-10.24,5.51-19.65,8.78-29.34.32-2.95.63-5.91,1.06-9.83-.9,2.69-1.76,4.36-1.95,6.11-.13,1.21.65,2.51,1.03,3.77ZM853.37,203.95c-4.1-2.89-7.21-5.42-10.63-7.42-4.22-2.46-8.7-4.48-13.07-6.69-1.45-.74-3.02-1.31-4.34-2.24-13.4-9.44-27.87-16.73-43.05-22.91-23.76-9.68-48.28-16.73-73.1-22.91-5.2-1.3-10.53-2.11-16.22-3.23-2.36,4.66-4.82,8.88-6.69,13.35-3.52,8.42-5.06,17.28-5.82,26.41-.79,9.56-.88,10.33-11.39,8.78-5.68-.84-11.2-.6-16.35,2.42-1.39.82-3.49,1.22-2.88,3.28.47,1.57,1.56,3.49,2.91,4.14,2.73,1.32,5.8,2.03,8.78,2.75,9.66,2.36,19.55,3.97,28.96,7.04,16.51,5.38,32.75,11.59,49.08,17.53,5.76,2.1,11.58,4.13,17.12,6.72,7.38,3.45,14.43,7.58,21.76,11.14,14.01,6.81,27.89,13.75,38.44,26.34,18.68-18.03,27.99-40.87,36.49-64.52ZM204.08,206.17c.34,1.17.54,2.04.83,2.88,5.26,15.1,11.57,29.7,19.79,43.49,4.22,7.08,9.66,12.81,16.12,18.01,8.03-10.23,18.56-16.53,29.65-22.09,9.55-4.79,19.08-9.64,28.64-14.42,2.91-1.45,5.8-2.98,8.84-4.1,12.71-4.7,25.57-9.03,38.19-13.95,14.22-5.54,28.78-9.78,43.68-12.96,4.42-.94,8.82-1.98,13.17-3.2,3.06-.86,5.06-2.73,4.42-6.29-.54-.4-.93-.84-1.42-1.01-7.84-2.73-15.65-5.55-23.56-8.06-3.22-1.02-6.48-1.92-7.68-5.35-1.53-4.38-2.75-8.9-3.8-13.43-1.23-5.28-1.92-10.69-3.26-15.94-.78-3.07-1.4-6.4-4.47-9.08-8.19,1.91-16.7,3.58-25.03,5.89-13.97,3.86-27.92,7.83-41.69,12.32-9.29,3.03-18.17,7.27-27.39,10.55-12.58,4.49-23.69,11.64-34.91,18.63-2.3,1.43-4.58,2.93-7.02,4.07-8.06,3.77-15.75,8.12-23.11,14.04ZM394.51,159.75c4.67-3.69,8.86-7.01,13.05-10.32,1.65-1.3,1.79-2.85,1.29-4.84-1.63-6.49-3.12-13.01-4.54-19.55-.67-3.07-1.06-6.2-1.71-10.07,7.09,3.92,13.35,7.39,19.56,10.82,4.25-5.05,6.58-10.82,11.44-15.68.36,1.62.56,2.26.65,2.92,1.1,8.08,2.26,16.16,3.23,24.26.19,1.56-.42,3.22-.65,4.83,5.5.61,15.67-.91,19.03-3.17-4.16-.04-4.48-3-4.88-5.58-1.37-8.94-2.62-17.91-3.72-26.89-.22-1.81.39-3.72.67-6.05-3.45,0-6.87.04-10.27-.01-2.39-.04-4.02.95-5.41,2.92-3.42,4.86-7.04,9.58-10.73,14.55-5.43-2.77-10.89-5.57-16.36-8.34-.94-.48-2.04-1.4-2.88-1.23-5.57,1.15-11.38,1.36-17.19,4.28,4.91-.18,3.92,3.42,4.43,5.76,1.94,8.84,3.42,17.77,5.53,26.57,1.08,4.51,2.28,8.73-1.06,12.76-.13.15.16.65.54,2.04ZM637.29,154.22c.44-1.65.72-2.49.88-3.36,2.24-12.44,4.43-24.88,6.72-37.31,1.31-7.08.74-7.95-6.54-8.69-1.4-.14-2.83-.02-4.57-.02-1.39,4.37-2.74,8.48-4.01,12.6-1.09,3.54-3.68,5.54-7.1,5.79-3.14.23-6.43-.15-9.5-2.13.62-4.04,1.25-7.95,1.81-11.87.2-1.43-.07-3.03.48-4.28.41-.93,1.8-1.43,3.52-2.68-7.01-1.25-12.97-2.32-18.94-3.38-.28.25-.56.49-.84.74,3.22,2.26,2.16,5.11,1.75,7.82-1.42,9.48-2.89,18.95-4.36,28.42-.54,3.46-.37,7.18-4.66,9.82,7.17,1.7,13.21,3.59,19.83,2.3-2.01-5.18-.73-18.76,2.09-23.55,2.21.45,4.52.83,6.79,1.39,3.72.92,5.23,2.63,5.38,6.38.08,1.96-.17,3.96-.45,5.92-.61,4.25-1.33,8.49-2.11,13.38,4.57.9,8.92,1.75,13.82,2.71ZM580.76,97.98c-16.69-1.26-32.55-3.08-48.83-3.04-.15,4.26-1.09,7.74.99,12,4.08-4.29,7.1-9.83,14.18-8.62-.14,1.55-.23,2.78-.37,4.01-1.03,9.16-2.11,18.31-3.08,27.47-.37,3.52,1.08,7.52-3.39,10.07,7.51,1.04,14.57,2.44,23.01,1.43-5.01-4.77-3.26-9.53-2.76-14.2.59-5.58.93-11.18,1.44-16.76.32-3.53.75-7.04,1.12-10.45,7.77-.97,9.71,7.4,15.93,9.1.58-3.67,1.09-6.85,1.75-11.02ZM512.41,96.81c-.06-.59-.12-1.17-.18-1.76-9.19-1.48-18.38.73-27.93.14-2.69,10.66-5.11,20.86-7.89,30.96-1.28,4.65-.34,10.15-4.74,14.16,7.98-1.23,15.97-2.46,23.95-3.68.16-.34.32-.68.48-1.03-4.96-1.45-4.47-4.84-3.71-8.37.15-.7.07-1.45.18-2.17,1.45-9.07,2.66-18.19,5.62-27.19,2.32.13,4.44.25,6.52.37,1.92,5.22,3.7,10.07,5.56,15.13-4.37.91-8.35,1.73-12.32,2.56.04.34.07.69.11,1.03h13.55c.86,1.96,1.6,3.59,2.3,5.24,1.7,4,3.35,8.02,5.09,12.01.59,1.35,1.36,2.64,3.34,1.65.07-.48.35-1.08.18-1.5-4.86-11.88-9.77-23.73-14.67-35.6,1.42-.62,2.98-1.3,4.54-1.98Z"/>
  <path class="cls-1" d="M495.96,295.16c-.81.83-2.19,1.58-2.33,2.51-1.17,7.7-2.27,15.36-5.38,22.63-.5,1.18.09,3.32.92,4.47,1.68,2.31,3.85,4.29,5.88,6.34,4.46,4.48,9.13,8.77,13.39,13.44,2.44,2.68,4.24,5.94,6.31,8.95,1.33,1.93,2.71,3.83,3.92,5.83,2.19,3.62,4.44,7.21,6.34,10.98,3.1,6.12,6.64,12.16,8.68,18.65,1.63,5.19,1.34,11,1.79,16.54.04.52-.77,1.11-1.48,2.06-5.86-5.78-12.86-9.84-16.38-17.77-1.99-4.48-4.68-8.92-7.45-12.93-4.47-6.47-10.21-12.07-18.42-14.43-9.55-2.75-19.26-5.38-28.23-9.52-4.89-2.26-10.37-2.69-15.06-5.65.47-3.49,3.05-3.31,5.32-3.25,5.79.15,11.6.8,17.37.6,5.18-.18,10.33-1.22,16.56-2.02-1.73-2.75-2.82-4.5-4.32-6.89-5.36,0-10.96-.01-16.57,0-16.95.05-32.45-4.83-46.54-14.1-5.39-3.55-10.45-7.6-16.7-12.2.41,1.83.36,2.54.69,2.91,8.04,8.85,17.6,15.51,28.75,19.9,3.37,1.33,6.67,2.86,9.92,4.45,1.37.67,2.53,1.76,4.29,3.03-1.43.76-2.26,1.6-2.9,1.48-4.98-.95-9.24,3.59-14.32,1.77-1.87-.67-3.93-.87-5.73-1.67-4.04-1.8-7.91-1.06-11.01,1.47-5.66,4.63-11.92,6.56-19.12,6.29-3.41-.13-6.7.11-9.98,1.9-2.2,1.2-5.28,1.32-7.9,1.13-10.97-.79-21.28-4.03-31.06-9.01-.49-.25-.99-.48-1.43-.79-1.59-1.14-3.99-2.24-2.99-4.53,1.27-2.88,3.39-.38,5.12-.07,2.2.4,4.17,2.28,6.71.54.58-.4,2.19.51,3.24,1,1.85.86,3.32,2.85,6.45,1.85-3.17-3.06-6.08-5.64-8.71-8.47-2.21-2.38-4.38-4.88-6.08-7.63-2.12-3.44-.81-5.47,3.11-6.6,4.07-1.18,6.97.37,9.74,3.01,8.37,8,18.27,13.59,28.87,18,1.63.68,3.55.72,5.35.96.62.08,1.27-.11,2.11-.62-6.07-4.21-12.78-7.36-17.59-13.16-4.61-5.55-9.22-11.04-12.96-17.73,1.98-1.32,3.42-2.29,4.78-3.2,2.62,3.07,5.01,5.86,7.4,8.66.39-.02.78-.05,1.17-.07-2.69-5.42,1.94-7.3,4.24-11.12,6.67,7.42,12.81,14.84,22.14,18.46-1.16-1.29-2.28-2.63-3.49-3.87-2.74-2.79-4.85-5.92-5-9.97-.11-2.83-2.08-4-4.08-5.32-1.26-.83-2.48-2.11-1.05-3.5.59-.57,2.31-.41,3.32-.04,1.84.66,3.54,1.72,5.77,2.86-2.11-2.59-7.27-6.42-11.68-7.64-6.91-1.91-8.92-7.09-10.48-13.77,4.94-.21,9.49-.4,14.03-.58-5.39-4.22-9.4-9.06-13.48-13.92-6.51-7.76-9.83-16.82-12.06-26.46-.57-2.46-.32-4.65,1.83-6.67,2.78.8,5.66,1.64,9.37,2.71-2.29-4.5-4.23-8.31-6.07-11.93.75-2.18,1.42-4.14,2.22-6.46,1.27,1.55,2.47,3.01,3.67,4.46.98,1.62,1.96,3.25,2.94,4.87,4.3,5.29,8.14,11.07,13.02,15.75,6.79,6.52,15.2,10.93,23.49,15.36,1.69.9,3.57,1.44,5.37,2.15,1.96,2.74,3.55,5.86,5.93,8.15,7.27,7,14.7,13.86,22.39,20.41,3.02,2.58,5.36,6.34,10.32,7.45.08-11.63-.36-22.75-3.2-33.68-1.18,6.36.32,13.1-3.48,18.97-.71-.64-1.03-1.27-1.01-1.88.2-6.13.53-12.26.67-18.39.05-2.05-.01-4.32-3.14-5.28-.19,1.33-.44,2.31-.44,3.29-.02,5.06.14,10.13.01,15.19-.11,4.21-3.1,6.56-6.8,5.05-1.58-.65-2.89-2.63-3.74-4.29-3.82-7.45-9.93-12.07-17.61-14.88-.46-.73-.78-1.64-1.41-2.17-7.39-6.11-14.82-12.19-22.27-18.23-4.77-3.87-9.57-7.71-14.46-11.44-1.01-.77-2.45-.98-3.68-1.47.49-2.56-.65-4.08-3.03-4.81.53-2.39,2.14-2.63,4.14-2.05,2.06.59,3.93,1.37,6.21-.02,1.14-.69,3.22-.22,4.76.17,8.16,2.08,15.64,5.46,22.09,11.12,4.74,4.17,9.91,7.84,15.5,12.22-1.35-8.43-6.26-14.74-9.33-22.44,8.13.9,12.86,5.88,18.4,10.28-1.26-3.03-2.53-6.05-3.86-9.23,11.36,3.03,23.02,20.35,30.97,44.48.09-6.71.52-13.43.18-20.11-.34-6.61-1.46-13.18-2.36-20.82,1.84,2.21,3.21,3.85,4.93,5.91.11-2.33.2-4.15.29-5.97,4.9,4.73,6.86,10.89,9.7,16.59,2.85,5.74,3.42,11.93,4.08,18.16.42-.04.85-.08,1.27-.12-.21-4.61-.42-9.21-.64-13.82-.07-1.45-.46-2.93-.23-4.32.15-.9,1.01-2.09,1.81-2.34.75-.24,2.25.3,2.71.98,1.91,2.84,3.82,5.75,5.25,8.85,3.93,8.53,5.27,17.62,5.87,26.95.56,8.69.34,17.29-1.09,25.85-.53,3.14.76,5.17,3.31,6.53,5.88-14.43,8.46-29.53,9.45-44.86.91-.21,1.74-.59,1.9-.41,4.17,5.03,11.4,7.49,12.34,15.29.59,4.9,1.94,9.71,3.02,14.93.6-3.82,1.17-7.43,1.74-11.03,3.94,6.91,5.03,13.99,3.73,21.47-1.4,8.12-4.35,15.7-8.47,22.71-2.06,3.5-5.34,6.32-8.27,9.25-.8.8-2.37,1.28-3.5,1.16-1.28-.13-2.76-.87-3.56-1.83-.36-.42.64-2.11,1.2-3.12.32-.58,1.01-.96,2.33-2.16-3.3.34-5.77,1.89-8.12-.21-.51-.45-2.53,1.1-3.9,1.2-1.25.1-3.27-.11-3.71-.89-1.89-3.33-3.65-6.82-4.82-10.46-1.02-3.18-.97-6.39.14-9.93,1.43-4.57,1.36-9.6,1.92-14.46.08-2.08.17-4.14.29-6.77-2.02,2.68-1.14,4.77-.22,6.86ZM490.67,257.94c-2.6,10.55-4.85,20.72-7.69,30.73-1.38,4.88-3.22,9.9-8.33,12.54-5.32-3.08-2.82-9.42-6.07-13.58-1.68,4.12-3.18,7.81-4.85,11.91,5.75,5.86,11.4,12.58,18.53,18.33.87-1.18,1.66-1.8,1.85-2.57.96-4.03,1.86-8.09,2.59-12.17,2.33-13,4.55-26.02,6.89-39.01.47-2.59.1-4.65-2.92-6.19ZM476.17,325.97c-.9-.32-1.77-.75-2.7-.93-3.87-.77-8-.85-11.58-2.31-8.64-3.54-17.69-5.07-26.8-6.33-4.29-.59-8.82-1.63-11.27-4.71-4.06-5.08-9.63-6.22-15.04-8.15-.93-.33-1.99-.29-4.25-.58,20.93,19.29,44.53,26.44,71.63,23.01ZM425.77,303.14c7.69,7.57,21.07,6.55,26.68-1.53-7.27-4.71-28.4-12.61-33.63-12.14,5.7,3.07,11.67,4.83,13.99,10.54-2.49,1.1-4.65,2.06-7.03,3.12ZM414.81,285.93c4.88-.59,9.02-1.09,14.35-1.74-6.42-3.33-11.6-6.78-17.3-8.75-5.85-2.02-11.47-4.2-16.6-7.66-3.24-2.18-6.58-4.22-9.87-6.33.87,2.4,2.22,4.42,3.99,5.98,5.35,4.69,11.24,8.53,18.09,10.78,3.72,1.22,7.25,2.72,7.33,7.72ZM441.39,314.37c-6.09-3.5-13.82-3.88-18.28-10.42-1.01,1.25-1.53,1.88-2.08,2.56,5.49,6.65,12.97,7.11,20.36,7.86Z"/>
  <path class="cls-1" d="M249.2,588.53c-1.88,3.26-3.79,3.07-5.54,1.05-3.69-4.24-7.53-8.39-10.74-12.98-9.72-13.92-16.92-29.09-22.35-45.18-5.54-16.4-9.23-33.22-11.29-50.31-2.08-17.27-2.9-34.66-2.16-52.12.85-20.01,3.63-39.72,8.2-59.16,3.79-16.09,9.01-31.75,16.32-46.64.8-1.64,1.18-4.06,4.8-2.57-1.12,2.73-2.11,5.36-3.26,7.93-8.79,19.63-14.46,40.16-18.13,61.34-4.2,24.28-5.12,48.72-3.87,73.23.78,15.21,3.28,30.25,6.78,45.13,3.84,16.31,9.37,31.94,16.81,46.93,5.45,10.97,12.52,20.78,21.01,29.59,1.12,1.16,2.17,2.39,3.41,3.77Z"/>
  <path class="cls-1" d="M535.6,305.54q3.6,3.61,2.82,21.83c6.25.05,8.58,4,9.23,9.63.1.91.83,1.84,1.5,2.56,2.64,2.87,3.5,6.36,3.09,10.03-.33,2.9-1.32,5.73-2.14,8.55-.71,2.42-1.46,4.85-2.45,7.16-1.33,3.12-2.77,6.21-4.44,9.15-1.03,1.82-2.56,3.36-3.75,4.87-1.32-1.58-3.06-3.3-4.33-5.31-.92-1.46-1.37-3.28-1.76-5-.39-1.72-.45-3.52-.69-5.64-1.53,0-2.8.18-3.98-.05-1.19-.23-3.06-.63-3.3-1.38-1.07-3.35-4.3-4.84-6.38-7.38,8.78-15.18,15.77-30.65,16.59-49.03ZM534.38,343.89l-1.08-.46c-.64,1.52-1.28,3.04-1.93,4.56.32.14.63.27.95.41.68-1.5,1.37-3.01,2.05-4.51ZM534.96,339.15c.29.08.58.16.88.23.23-.57.58-1.13.66-1.72.09-.69-.05-1.42-.09-2.13-.24,0-.48-.02-.72-.02-.24,1.21-.48,2.43-.72,3.64Z"/>
  <path class="cls-1" d="M839.63,367.26c7.52,11.07,11.73,23.56,14.86,36.41,5.7,23.4,8.07,47.17,6.83,71.24-1.16,22.54-3.95,44.84-11.54,66.22-6.54,18.42-15.31,35.63-29.46,49.57-1.03,1.01-2.1,2.01-3.3,2.79-.46.3-1.73.25-1.92-.07-.39-.64-.51-1.63-.34-2.38.15-.62.84-1.15,1.36-1.64,11.46-10.53,19.17-23.57,25.17-37.72,8.41-19.81,13.51-40.49,16.33-61.81,3-22.68,2.11-45.27-1.31-67.76-2.74-17.97-7.88-35.33-15.4-51.93-.44-.97-.84-1.95-1.27-2.93Z"/>
  <path class="cls-1" d="M379.72,455.14c5.08-.95,10.22-2.11,15.41-2.83,5.12-.71,6.29.34,6.45,5.37.14,4.53.17,9.07-.06,13.59-.23,4.5-6.01,9.61-10.45,9.56-2.83-.03-4.63-1.76-4.87-4.67-.47-5.73,2.34-8.98,7.99-9.24.9-.04,1.79-.08,2.9-.13.23-1.47.45-2.83.7-4.45-5.74.29-11.1.55-16.78.84,0,4.7-.54,9.44.14,13.99.81,5.41-2.73,8.04-5.96,10.57-1.42,1.11-4.55.82-6.6.17-2.64-.83-2.08-3.66-1.7-5.69.61-3.21,2.48-5.64,5.93-6.34,1.23-.25,2.51-.31,4.05-.49,1.95-6.55-.68-13.74,2.84-20.25Z"/>
  <path class="cls-1" d="M758.07,444.5c.31-2.86.62-5.7.99-9.05-6.01.13-11.38,2.06-17.12,3.17,0,2.73-.11,5.25.02,7.76.27,4.92-2.12,8.66-5.13,12.18-1.36,1.59-3.03,2.1-4.84,1.14-1.86-.99-2.05-2.67-1.6-4.68.83-3.76,2.67-6.34,7.04-6.27.33-4.26.7-8.02.9-11.8.38-7.18.36-7.24,7.6-8.86,3.89-.87,7.78-1.72,11.7-2.43,4.66-.84,6.34.96,5.96,5.53-.44,5.38-.63,10.8-.73,16.2-.05,2.8-.29,5.4-2.35,7.53-2.41,2.48-5.66,2.86-7.68.84-2-2-1.97-5.56.37-7.83,1.39-1.35,3.2-2.28,4.86-3.42Z"/>
  <path class="cls-1" d="M560.69,218.25c2.83-.91,5.6-2.05,8.49-2.68,4.92-1.07,9.92-1.81,15.67-2.83,0,2.04-.07,3.93.01,5.81.22,5.01-.49,10.07,1.87,14.9,1.2,2.46-.72,4.68-2.63,5.97-1.49,1.01-3.67,1.6-5.47,1.45-2.05-.17-2.45-4.2-.57-6.46,1.14-1.36,2.71-2.36,4.2-3.62v-10.66c-6.95.21-13.18,2.69-20.28,3.46.17,3.12.27,5.93.5,8.74.52,6.32-3.28,10.05-9.69,9.44-2.25-6.81-1.2-8.46,7.11-10.66,0-3.31-.07-6.72.04-10.13.03-.98.57-1.94.88-2.91.42,1.27.84,2.54,1.32,3.98,3.97-1.02,7.39-1.9,10.81-2.78,0-.44,0-.88,0-1.32-1.22-.27-2.46-.82-3.66-.75-2.89.18-5.75.66-8.63,1.02Z"/>
  <path class="cls-1" d="M837.01,453.68q1.86-5.14-1.88-8.06c-1.02,3.11-.73,6.15-.62,9.05.2,5.65-3.02,8.59-7.66,10.54-3.07,1.29-4.77.22-5.3-3.14-.68-4.29,1.21-6.81,5.55-7.4.87-.12,1.76-.18,2.58-.26,3.04-6.47.15-14.2,4.88-20.5,2.91,2.67,5.52,4.86,7.87,7.29,1.08,1.12,1.95,2.64,2.41,4.13.88,2.89-.27,4.87-3.28,6.31-1.35.64-2.73,1.22-4.54,2.02Z"/>
  <path class="cls-1" d="M659.15,527.28c.36-4.37,2.14-8.83-2.05-12.81-.25,1.28-.62,2.34-.63,3.41-.06,3.81-.02,7.63.02,11.44.04,4.33-1.79,7.66-5.26,10.19-2.48,1.81-4.55,1.97-5.76.36-1.47-1.95-1.15-5.43,1-6.83,1.93-1.26,4.21-2,6.48-3.03,1.15-7.5-.08-15.32,2.13-23.38,1.25.85,1.91,1.14,2.34,1.62,1.88,2.15,3.63,4.42,5.56,6.53,2.72,2.98,3.25,7.09,1.28,10.59-1,1.77-2.28,2.8-5.1,1.91Z"/>
  <path class="cls-1" d="M319.79,312.61c.75-8.41-1.7-16.23-.63-24.82,4.38,2.88,8.01,5.43,9.99,9.66,2.16,4.64.68,7.75-4.34,8.69.08-4.54.37-9.16-3.53-12.75.35,3.5.67,7,1.05,10.49.37,3.42.98,6.82,1.12,10.24.16,4-1.28,7.49-4.75,9.77-2.5,1.64-4.42.92-5.66-1.82-1.38-3.05.21-7.14,3.49-8.65.94-.43,2.04-.52,3.26-.82Z"/>
  <path class="cls-1" d="M241.99,397.11c-.84-7.84-1.66-15.46-2.51-23.3,3.2,2.43,5.96,4.27,8.39,6.47,1.55,1.4,2.95,3.19,3.81,5.08.82,1.8.81,3.86-1.45,5.18-1.13.66-1.98,1.8-3.62,3.36-.2-5.67-.31-10.66-5.78-13.51,1.44,5.9,2.73,11.85,4.37,17.7,1.32,4.72-3.19,11.01-8.09,10.87-2.3-.07-3.06-1.7-3.3-3.61-.36-2.82,1.79-6.08,4.69-7.21,1.15-.45,2.38-.7,3.5-1.02Z"/>
  <path class="cls-1" d="M707.98,451.78c-7.24-1-8.96-3.65-6.88-10.3,1.37-4.39,2.89-8.72,4.74-14.25,2.22,4.61,0,7.78.08,10.98.27.22.51.59.8.64,6.23,1,7.75,2.97,6.65,9.03-.67,3.71-1.55,7.39-2.31,11.08-.36,1.76-1.62,2.64-3.1,2.05-.75-.3-1.42-1.98-1.34-2.97.18-2.1.87-4.16,1.36-6.27Z"/>
  <path class="cls-1" d="M582.99,265.49c2.6-1.03,5.33-1.83,7.77-3.16,2.66-1.45,5.34-3.1,7.49-5.19,5.63-5.46,5.67-11.25.49-17.25-.67-.77-1.37-1.51-2.45-2.69,6.37,2.15,8.93,6.28,8.45,12.42-.4,5.08-2.83,9.14-6.83,11.83-3.53,2.38-7.67,3.91-11.64,5.56-.85.35-2.15-.39-3.25-.62-.01-.31-.02-.61-.03-.92Z"/>
  <path class="cls-1" d="M510.62,423.53c-1.21,7.66-5.28,13.22-12.42,17.16-1.09-1.35-2.05-2.54-3.08-3.82,4.05-6.04,9.64-9.79,15.5-13.34Z"/>
  <path class="cls-1" d="M684.94,542.9c-1.94,3.98-3.77,7.72-5.73,11.76-.25-.25-1.23-.78-1.24-1.32-.04-3.69-1.69-6.06-5.71-7.07,5.94-2.14,4.32-8.45,7.73-12.53,1.69,3.6.06,8.71,4.94,9.16Z"/>
  <path class="cls-1" d="M297.34,456.18c2.31,6.7,7.5,10.54,13.23,13.84,11.59,6.66,23.98,10.78,38.24,11.29-17.05,3.92-51.64-11.38-51.48-25.12Z"/>
  <path class="cls-1" d="M571.89,250.89c1.3,3.59,2.38,6.55,3.59,9.91-2.35,2.34-5.26,5.07-5.14,9.67-1.54-2.5-3.08-5-4.64-7.53,1.82-3.55,3.87-7.54,6.19-12.05Z"/>
  <path class="cls-1" d="M255.44,440.84c-9.44-4.71-15.18-12.67-19.04-22.3,5.07,1.89,6.15,7.37,9.6,10.73,3.57,3.48,6.99,7.12,10.47,10.7-.34.29-.69.58-1.03.87Z"/>
  <path class="cls-1" d="M235.12,457.2c4.33-1.53,2.79-5.83,3.31-10.33,2.11,3.93,1.91,8.69,7.57,8.58-4.45,2.83-3.75,7.21-4.14,12.04-2.49-3.8-4.41-6.73-6.74-10.29Z"/>
  <path class="cls-1" d="M783.87,460.9c2.77,3.19,4.9,5.65,7.15,8.25-.73.28-1.96.76-3.19,1.23-.46,1.48-.91,2.96-1.46,4.72-2.32-2.65-4.36-4.99-6.54-7.48,2.74-.55,4.22-2.94,4.02-6.72Z"/>
  <path class="cls-1" d="M270.09,383.97c-1.52-1.79-3.19-3.75-4.89-5.74.38-1.55,1.1-3.48,1.27-5.46.15-1.76-.31-3.56,0-5.48,2.4,2.81,2.14,7.65,7.29,7.52-1.31,3.29-2.5,6.27-3.66,9.17Z"/>
  <path class="cls-1" d="M721.68,525.28c-2,9.4-16.23,19.58-25.45,17.86,11.67-1.99,19.28-8.58,25.45-17.86Z"/>
  <path class="cls-1" d="M667.64,369.49c4.39,2.79,8.53,5.42,13.65,8.68-6.14,1.05-9.93-1.31-13.61-3.78-1.54-1.03-1.72-2.66-.04-4.9Z"/>
  <path class="cls-1" d="M472.54,400.27c-3.1,4.98-6.2,9.96-9.79,15.72,1.87-6.91,5.13-11.89,9.79-15.72Z"/>
  <path class="cls-1" d="M801.03,468.74h-3.47c0-.12-.02-.23-.02-.35,1.08-.1,2.17-.21,3.25-.31.08.22.16.44.24.66Z"/>
  <path class="cls-1" d="M430.72,690.01c.07-12.91,4.47-24.44,7.94-35.98,5.9-1.76,9.61,1,11.66,5.23,3.38,6.97,5.92,14.35,8.88,21.53.93,2.25,2.11,4.4,4.25,6.42.19-1.32.3-2.65.58-3.95,1.3-6,2.5-12.02,4.05-17.96.61-2.35,1.7-4.9,5.95-4.26-.73,3.43-1.06,6.83-2.21,9.93-2.55,6.91-2.2,13.89-1.2,20.93.64,4.47-.19,5.42-4.49,4.45-4.71-1.06-8.2-3.94-10.17-8.22-1.73-3.76-2.84-7.81-4.2-11.73-1.22-3.54-2.41-7.09-4.14-10.63-1.91,5.9-3.56,11.74-3.71,17.89-.02.91.12,1.82.09,2.72-.15,4.23-1.07,4.99-5.4,4.5-2.69-.3-5.39-.61-7.89-.89ZM443.05,656.83c-.41.02-.83.03-1.24.05-1.41,4.56-3.32,9-3.58,15.05,4.36-3.08,4.54-7.1,5.78-10.4.48-1.27-.6-3.11-.96-4.7Z"/>
  <path class="cls-1" d="M337.87,620.73c1.81-2.8.94-4.86-.83-6.6-4.78-4.71-11.66-5.12-17.01-2.15-4.15,2.3-5.16,7.06-2.61,11.32,1.3,2.17,3.09,4.05,4.32,6.25,2.58,4.62,1.88,9.81-2,12.06-2.05,1.19-4.95,1.96-7.2,1.52-4.84-.95-9.27-3.24-12.09-7.59-.83-1.29-1.33-3.02-1.36-4.56-.06-3.96,2.71-6.15,6.48-4.97,2.18.68,4.16,2.11,6.14,3.35,1.06.66,1.85,1.76,2.91,2.42.47.3,1.49.25,1.92-.07.44-.33.81-1.4.59-1.82-.83-1.59-1.8-3.15-2.93-4.54-6.11-7.52-5.13-13.15,3.78-18.63,7.04-4.33,17.13-3.19,23.99,3.62,5.03,5.01,3.19,13.35-3.32,16.27-3.46,1.55-7.07,1.56-10.65.74-3.3-.75-5.8-4.34-5.73-7.73.06-2.85,3.08-5.87,6.44-6.43,2.19-.36,3.9.44,5.2,2.19,1.24,1.68,2.49,3.37,3.95,5.35Z"/>
  <path class="cls-1" d="M594.73,676.19c3.43,1.84,5.79,3.11,8.45,4.54,3.04-3.57,6.64-4.85,10.99-2.46,3.84,2.1,4.43,5.13,1.56,8.43-3.09,3.55-9.82,4.72-13.88,2.05-2.37-1.56-4.3-3.8-6.49-5.65-2.55-2.15-4.74-5.06-9.28-4.78-.1,2.46-.56,4.81-.2,7.02.86,5.35-1.93,8.14-6.35,9.95-1.58.65-3.26,1.05-4.8,1.53.79-7.38,1.39-14.23,2.3-21.03.41-3.02,1.23-6.04,2.22-8.93,3.02-8.87,13.62-13.72,22.42-10.42.34.13.71.19,1.02.36,3.32,1.75,6.56,4.01,6.47,8.02-.08,3.63-2.9,6.12-6.11,7.73-2.38,1.19-4.88,2.15-8.33,3.64ZM587.18,672.07c5,.39,8.35-1.88,10.96-5.17,2.29-2.89.73-6.28-2.97-6.56-2.66-.2-5.41,0-8.04.48-1.25.23-2.93,1.25-3.36,2.33-1.3,3.31-2.18,6.81-1.94,10.44,2.61-3.36,2.42-8.23,7.57-11.46-.89,3.97-1.53,6.8-2.23,9.94Z"/>
  <path class="cls-1" d="M421.24,686.13c-5.85,1.48-9.48-.39-10.25-5.67-.57-3.87-.11-7.89-.11-12.11-2.1-.89-4.39-1.87-6.94-2.96-3.12,3.69-6.24,7.19-9.13,10.87-1.26,1.61-2.66,2.61-4.6,2.08-3.82-1.03-7.57-2.3-11.69-3.57,7.47-12.34,18.37-20.57,28.36-29.34,8.86,3.58,10.92,6.51,10.79,15.27-.05,3.07-.42,6.13-.77,9.19q-1.05,9.12,4.36,16.23ZM405.76,662.69c3.01.43,3.73,3.21,6.46,2.02v-9.42c-2.4,2.74-3.97,4.55-6.46,7.39ZM399.36,659.83c9.26-6.83,10.39-8.16,9.87-10.48-3.38,3.59-6.63,7.03-9.87,10.48Z"/>
  <path class="cls-1" d="M528.58,666.08c-2.5.56-4.14,1.24-5.77,1.22-5.06-.04-10.12-.35-15.18-.53-1.39-.05-2.78,0-4.51,0-.47,3.81-.88,7.13-1.31,10.64,3,.29,5.5.45,7.98.79,1.87.26,3.95,1.01,3.39,3.24-.27,1.07-2.28,2.21-3.64,2.4-2.63.38-5.35.11-8.65.11-.07,2.4-.09,4.86-.23,7.32-.27,4.58-.57,6.82-5.63,6.65-1.53-.05-3.08.92-4.65,1.31-1.85.47-3.74.81-5.7,1.23-1.05-12.02,1.66-22.75,5.85-33.24.65-1.63,1.25-2.96,3.17-3.22,10.99-1.53,21.96-1.54,32.91.39.29.05.52.43,1.97,1.68ZM496.88,678.94c1.05-4.22,1.98-7.96,2.91-11.71-4.32-.86-4.48-.83-5.26,1.82-.36,1.2-.28,2.54-.75,3.68-1.18,2.88-.31,4.76,3.1,6.21Z"/>
  <path class="cls-1" d="M374.6,639.6c-3.96,6.94-7.62,13.35-11.26,19.77-.17.31-.15.72-.3,1.04-2.25,4.82-4.09,5.55-8.86,3.41-1.14-.51-2.17-1.28-3.27-1.9-2.34-1.33-2.88-3.12-1.38-5.41,3.86-5.89,7.73-11.77,11.61-17.63.8-1.2,1.7-2.34,2.6-3.58-1.46-3.54-6.49-3.7-7.88-8.22,1.67.2,2.73.14,3.67.46,9.22,3.15,18.43,6.33,27.61,9.6,1.49.53,2.96,1.36,4.16,2.38.7.59,1.43,2.11,1.13,2.71-.47.96-1.87,2.21-2.72,2.11-3.19-.4-6.35-1.17-9.44-2.06-1.69-.49-3.23-1.51-5.66-2.69ZM364.05,643.66c4.25-1.45,5.25-2.9,5.11-6.77q-2.66,1.37-5.11,6.77Z"/>
  <path class="cls-1" d="M552.31,669.74c-5.15,4.32-6.56,10.17-7.38,16.09-.4,2.86,1.61,5.06,4.24,6.35,1.42.69,2.91,1.22,5.02,2.1-1.53,1.12-2.45,2.37-3.45,2.42-4.14.22-8.4.66-12.41-.07-5.89-1.07-9.04-6.54-8.02-12.87.88-5.45,3.2-10.41,6.27-14.94,1.41-2.09,3.39-3.64,6.38-3.41,4.13.32,8.3.07,12.42.43,5.5.48,8.41,4.08,9.17,9.22.47,3.18.32,6.49.04,9.71-.11,1.26-1.13,2.64-2.1,3.59-1.42,1.39-3.17.79-3.73-1.18-.34-1.19-.31-2.51-.34-3.77-.05-1.99.11-4-.02-5.98-.24-3.72-1.63-6.67-6.09-7.68ZM548.77,668.97c-5.39-.81-6.75-.24-9.16,4.12-1.05,1.89-1.66,4.03-2.54,6.21,1.55.41,2.4.64,3.09.82,2.83-3.66,5.52-7.15,8.61-11.14Z"/>
  <path class="cls-1" d="M631.67,649.66c3.68,3.02-.74,7.14,2.55,10.03,3.46-1.94,1.25-6.42,4.16-9.23.52,1.14,1.31,2.07,1.32,3.02.05,3.62-.22,7.23-.22,10.85,0,1.16.46,2.32.76,3.76,6.1-3.7,7.85-9.29,8.54-15.35.26-2.22-.99-3.89-3.34-4.18-4.63-.58-9.28-1.01-14.2-1.54.89-.52,1.76-1.26,2.76-1.57,4.23-1.34,8.55-1.44,12.88-.51,4.66,1,6.28,2.57,6.65,7.21.74,9.23-2.55,16.67-10.52,21.67-4.12,2.58-8.38,4.97-12.72,7.17-1.04.53-2.65-.07-4-.15.14-1.29-.21-3.19.51-3.77,1.92-1.53,1.68-3.44,1.86-5.39.56-6.13,1.11-12.25,1.76-18.37.12-1.12.74-2.19,1.25-3.65Z"/>
  <path class="cls-1" d="M326.16,664.45c-.43-2.99-.09-6.45-1.52-8.83-1.21-2.01-4.48-2.79-6.96-4.19,2.85-1.78,6.51,1.39,8.75-1.63,1.64-2.22,2.8-4.8,4.54-7.87.37,1.85.9,3.16.84,4.44-.17,3.75.56,6.88,5.04,8.14-.58,1.23-.79,2.68-1.44,2.91-3.87,1.37-7.51,2.91-9.24,7.03Z"/>
  <path class="cls-1" d="M555.27,690.58c1.12.36,2.23.72,3.56,1.15q-2.29,1.42-3.56-1.15Z"/>
  <path class="cls-1" d="M535.11,507.83c-6.79-.64-16.82-5.55-22.93-16.51-2.63-4.72-3.93-10.18-3.07-15.74.76-4.99,1.68-9.94,5.02-14.11,4.89-6.09,11.09-9.64,18.79-10.85,4.6-.72,9.05-1.94,13.87-1.46,20.89,2.06,32.23,25.25,22.38,42.73-6.25,11.09-15.72,16.66-34.06,15.93ZM527.46,460.89c-9.89,4.98-12.27,20.39-4.85,26.62-1.32-9.19-.3-17.87,4.85-26.62ZM559,493.53c-.11-.25-.22-.5-.33-.74-.63.06-1.37-.07-1.84.24-.54.35-.84,1.07-1.24,1.64l.7.73c.9-.62,1.81-1.24,2.71-1.86Z"/>
  <path class="cls-1" d="M494.51,514.06c-3.8-7.1-1.83-14.82,4.3-18.38,1.29,3.48-.88,13.11-4.3,18.38Z"/>
  <path class="cls-1" d="M565.98,511.78c-.19,6.5-4.47,10.68-9.62,9.6-1.03-.22-1.87-1.32-2.8-2.01.67-.89,1.15-2.13,2.04-2.6,3.27-1.75,6.68-3.24,10.38-4.98Z"/>
  <path class="cls-1" d="M505.74,503.06c1.03,5.34.62,10.43.76,15.68-5.83-2.81-6.29-11.08-.76-15.68Z"/>
  <path class="cls-1" d="M570.87,517.36c1.97-2.56,3.77-4.9,5.85-7.61,1.03,3.45.24,6.04-2.23,8.16-1.18,1.02-2.44,1.64-3.62-.56Z"/>
  <path class="cls-1" d="M338.31,394.83c-1.4,2.52-2.81,5.05-4.21,7.57.51-3.12,1.26-6.08,4.31-7.48,0,0-.1-.09-.1-.09Z"/>
  <path class="cls-1" d="M338.41,394.92l1.77-3.55.91.69c-.93.92-1.85,1.85-2.78,2.77,0,0,.1.09.1.09Z"/>
  <path class="cls-1" d="M718.49,171.12c2-1.47,3.88-2.88,5.79-4.23.87-.62,1.76-1.32,2.75-1.66.78-.27,2.18-.38,2.49.04.52.71.76,2.02.46,2.85-1.86,5.29-3.89,10.52-5.89,15.75-1.09,2.87-2.18,5.74-3.4,8.56-.39.9-1.19,1.62-2.27,3.04-1.26-3.66-2.1-6.39-.65-9.67,2.1-4.76,3.72-9.73,5.56-14.64-.62-.26-.98-.55-1.15-.46q-5.06,2.58-9.37-1.12c-1.35-1.16-2.66-2.35-4.55-4.03-1.73,6.47-3.28,12.35-4.87,18.21-2.38,8.77-5.61,11.01-15.95,10.54,6.11-4.3,6.58-10.87,8.61-16.72,1.48-4.27,3.07-8.5,4.5-12.79.82-2.45,1.4-4.99,2.28-8.2,6.39,3.34,9.28,10.48,15.68,14.53ZM704.18,160.39c-.78,3.34-1.29,5.53-1.9,8.14,4.43-3.22,4.68-3.97,1.9-8.14Z"/>
  <path class="cls-1" d="M745.26,173c-.85,3.84-1.7,7.68-2.71,12.27,1.78.31,3.73.64,6.11,1.05.43,1.88-.7,3.58-3.11,6.24-.2-.71-.16-1.71-.63-2.1-2.44-2-4.3-1.68-5.54,1.01-.9,1.96-1.46,4.08-2.15,6.06,4.56,4.89,7.99,5.21,15.37,1.55.38,3.9-.11,5.51-2.59,8.84-7.38-2.52-14.67-5.02-22.06-7.55,4.22-10.26,8.43-20.48,12.8-31.11,7.64,2.93,15.11,4.92,22.01,9.24-1.03,3.04-1.97,5.82-2.92,8.6-2.8-7.38-7.98-11.44-14.65-13.97-1.72-1.43-2.9-1.03-3.62,1.04-1.26,3.65-2.54,7.3-3.81,10.95l.8.33,6.68-12.46Z"/>
  <path class="cls-1" d="M803.56,205.96c1.2-2.58,2.22-4.74,3.55-7.59,9.33,5.35,18.52,10.13,27.31,16.64-1.45,2.39-2.67,4.42-4.25,7.04-3.05-4.27-1.81-10.53-7.89-11.48-5.94,8.04-12.07,21.27-11.75,25.37q-3-.44-7.69-3.74c4.43-8.54,8.85-17.06,13.19-25.44-3.94-4.17-7.86.07-12.47-.81ZM819.66,208.96c-.43-.24-.87-.48-1.3-.72-2.2,3.36-4.18,6.84-5.63,10.6.36.2.72.4,1.08.59,1.95-3.49,3.9-6.99,5.85-10.48Z"/>
  <path class="cls-1" d="M770.23,213.13c5.1,2.74,9.83,3.69,14.47-.33,2.68,4.2-1.02,6.39-1.38,9.47-6.75-3.17-13.16-6.17-19.9-9.33,3.08-9.76,6.77-18.84,12.47-26.99.35.14.71.27,1.06.41-1.36,3.29-2.72,6.58-4.08,9.87.18.07.35.14.53.21,1.78-2.54,3.57-5.09,5.35-7.63.43.23.86.46,1.29.69-1.01,2.78-2.03,5.56-3.25,8.89,1.85,1.07,3.8,2.21,6.26,3.64-.22.87-.53,2.1-.97,3.86-1.03-.9-1.5-1.4-2.05-1.78-3.79-2.63-5-2.34-7.01,1.71-.64,1.29-1.26,2.6-1.79,3.94-.39,1-.63,2.06-1.01,3.38Z"/>
  <path class="cls-1" d="M792.63,202.88c-2.21-8.2-7.12-12.67-13.67-16.38,4.17.28,14.37,5.22,18.1,8.61-1.25,2.19-2.54,4.45-4.44,7.77Z"/>
  <path class="cls-1" d="M718.94,202.79c-5.4-2.55-6.16-4.56-4.55-11.65,1.64,4.21,2.87,7.36,4.55,11.65Z"/>
  <path class="cls-1" d="M800.65,236.15c4.91-.68,6.26,4.02,9.53,5.85-4.73.58-6.09-4.38-9.53-5.85Z"/>
  <path class="cls-1" d="M234.71,213.85c2.5,7.51,4.96,15.04,7.52,22.54.97,2.83,1.25,5.54-.04,8.38-1.27,2.8-2.21,5.74-3.47,8.54-.46,1.03-1.44,1.83-2.94,3.68-.4-2.21-1.06-3.5-.7-4.35,1.12-2.63.26-4.79-.76-7.17-4.42-10.22-6.6-21.06-8.29-32.34-1.32-.2-2.59-.38-4.9-.73,8.53-5.67,16.04-4.08,23.45-.1,3.23-5.82,6.34-11.43,9.4-16.95,2.89.31,4.26,1.04,4.93,3.46,2.78,10.13,5.81,20.19,8.71,30.29.38,1.33.6,2.72.92,4.22-4.42,1.75-8.43,3.33-12.57,4.97-.22-1.13-.46-1.66-.33-1.79,3.29-3.09,2.24-6.68,1.5-10.41-1.37-6.92-2.42-13.9-3.62-20.85-.14-.8-.33-1.6-.72-3.43-2.21,4.04-3.99,6.98-4.12,10.78-.14,4.16-1.08,4.74-5.06,3.44-2.71-.88-5.32-2.06-7.98-3.1l-.93.93ZM228.22,212.24c1.85,5.11,1.66,9.87,4.8,13.6.27-4.55-.4-8.95-1.94-13.19-.1-.28-1.22-.19-2.86-.41Z"/>
  <path class="cls-1" d="M316.72,171.03c2.46-.83,4.47-1.51,7.24-2.44,2.73,11.29,5.38,22.24,7.95,32.88-2.33,2.13-4.37,1.98-6.03.74-3.17-2.36-6.1-5.05-9.15-7.58-4.59-3.8-9.18-7.62-13.84-11.34-.73-.59-1.83-.71-3.72-1.4,1.39,4.59,2.46,8.35,3.67,12.07,1.83,5.67,3.81,11.28,5.58,16.97.33,1.07.45,2.82-.17,3.47-2.8,2.94-5.89,5.6-8.94,8.41-.67-.95-1.1-1.39-1.03-1.49,2.18-3.13,1.32-6.02.22-9.45-2.74-8.6-4.71-17.45-7.11-26.17-.43-1.56-1.42-2.98-2.21-4.58,4.67-3.69,10.96-4.03,16.46.05,4.65,3.44,8.87,7.44,13.28,11.2.78.67,1.54,1.36,3.21,1.63-1.75-7.44-3.51-14.88-5.41-22.96ZM294.32,181.62c-.25,4.54,1.38,8.62,3.34,12.62.29-4.54-.49-8.81-3.34-12.62ZM319.8,173c1.16,3.84,2.32,7.68,3.49,11.51.64-7.21-.15-10.33-3.49-11.51Z"/>
  <path class="cls-1" d="M339.51,164.25c2.8-.83,5.8-1.73,8.35-2.48.32,3.19.27,5.99.93,8.6,1.85,7.37,3.99,14.68,6.03,22,.79,2.82,1.08,5.97,5.01,6.86-.08.36-.17.72-.25,1.08-4.07,1.65-8.13,3.3-12.23,4.96-2.64-13.84-5.19-27.15-7.83-41.02ZM344.16,165.31c-.02,7.47,2.79,14.29,4.8,21.31-1.12-7.21-1.8-14.5-4.8-21.31Z"/>
  <path class="cls-1" d="M289.71,224c-3.36,1.46-6.22,2.7-9.04,3.93-3.9-12.78-7.65-25.06-11.55-37.79,2.63-2.51,5.82-4.79,11.1-4.79-3.14,3.7-1.18,6.88-.19,9.97,2.98,9.26,6.2,18.45,9.67,28.68ZM278.06,203.83c-.23-4.89-.76-9.71-3.54-14.67-.82.48-1.59,1.32-1.46,1.98.87,4.47,1.86,8.93,5,12.69Z"/>
  <path class="cls-1" d="M324.13,204.97c2.89.62,5.77,1.24,8.53,1.83.63,2.42-.9,2.72-2.36,2.88-3.24.35-5.3-1.28-6.17-4.71Z"/>
  <path class="cls-1" d="M400.77,121.52c-2.68,2.11-4.49,3.54-6.62,5.22-.92-4.35-1.9-8.97-2.99-14.13,2.71-.47,5.27-.92,8.49-1.47.43,3.95.81,7.46,1.12,10.39Z"/>
  <path class="cls-1" d="M608.38,129.23c-1.67-2.47-2.74-5.78-7.17-4.69,1.11-7.75,2.15-14.96,3.27-22.72,3.31.64,6.22,1.21,9.6,1.87-1.57,8.71-3.06,16.95-4.55,25.2-.38.11-.76.22-1.14.34Z"/>
  <path class="cls-1" d="M549.5,97.46c1.22,1.39,2.35,2.1,2.29,2.7-.74,7.67-1.65,15.32-3.17,22.95.28-8.19.56-16.38.88-25.65Z"/>
</svg>